<svg xmlns="http://www.w3.org/2000/svg">
    <symbol id="chevron-down">
        <path
            stroke-linecap="round"
            stroke-linejoin="round"
            d="m19.5 8.25-7.5 7.5-7.5-7.5"
        />
    </symbol>

    <symbol id="search">
        <path
            stroke-linecap="round"
            stroke-linejoin="round"
            d="m21 21-5.197-5.197m0 0A7.5 7.5 0 1 0 5.196 5.196a7.5 7.5 0 0 0 10.607 10.607Z"
        />
    </symbol>

    <symbol id="bar">
        <path
            stroke-linecap="round"
            stroke-linejoin="round"
            d="M3.75 6.75h16.5M3.75 12h16.5m-16.5 5.25h16.5"
        />
    </symbol>

    <symbol id="arrow-left">
        <path
            stroke-linecap="round"
            stroke-linejoin="round"
            d="M6.75 15.75 3 12m0 0 3.75-3.75M3 12h18"
        />
    </symbol>

    <symbol id="arrow-right">
        <path
            stroke-linecap="round"
            stroke-linejoin="round"
            d="M17.25 8.25 21 12m0 0-3.75 3.75M21 12H3"
        />
    </symbol>

    <symbol id="star" viewBox="0 0 24 24">
        <path
            fill-rule="evenodd"
            d="M10.788 3.21c.448-1.077 1.976-1.077 2.424 0l2.082 5.006 5.404.434c1.164.093 1.636 1.545.749 2.305l-4.117 3.527 1.257 5.273c.271 1.136-.964 2.033-1.96 1.425L12 18.354 7.373 21.18c-.996.608-2.231-.29-1.96-1.425l1.257-5.273-4.117-3.527c-.887-.76-.415-2.212.749-2.305l5.404-.434 2.082-5.005Z"
            clip-rule="evenodd"
        />
    </symbol>

    <symbol id="calendar">
        <path
            stroke-linecap="round"
            stroke-linejoin="round"
            d="M6.75 3v2.25M17.25 3v2.25M3 18.75V7.5a2.25 2.25 0 0 1 2.25-2.25h13.5A2.25 2.25 0 0 1 21 7.5v11.25m-18 0A2.25 2.25 0 0 0 5.25 21h13.5A2.25 2.25 0 0 0 21 18.75m-18 0v-7.5A2.25 2.25 0 0 1 5.25 9h13.5A2.25 2.25 0 0 1 21 11.25v7.5m-9-6h.008v.008H12v-.008ZM12 15h.008v.008H12V15Zm0 2.25h.008v.008H12v-.008ZM9.75 15h.008v.008H9.75V15Zm0 2.25h.008v.008H9.75v-.008ZM7.5 15h.008v.008H7.5V15Zm0 2.25h.008v.008H7.5v-.008Zm6.75-4.5h.008v.008h-.008v-.008Zm0 2.25h.008v.008h-.008V15Zm0 2.25h.008v.008h-.008v-.008Zm2.25-4.5h.008v.008H16.5v-.008Zm0 2.25h.008v.008H16.5V15Z"
        />
    </symbol>

    <symbol id="facebook">
        <path
            fill="#3F51B5"
            d="M42,37c0,2.762-2.238,5-5,5H11c-2.761,0-5-2.238-5-5V11c0-2.762,2.239-5,5-5h26c2.762,0,5,2.238,5,5V37z"
        ></path>
        <path
            fill="#FFF"
            d="M34.368,25H31v13h-5V25h-3v-4h3v-2.41c0.002-3.508,1.459-5.59,5.592-5.59H35v4h-2.287C31.104,17,31,17.6,31,18.723V21h4L34.368,25z"
        ></path>
    </symbol>

    <symbol id="instagram">
        <radialGradient
            id="yOrnnhliCrdS2gy~4tD8ma_Xy10Jcu1L2Su_gr1"
            cx="19.38"
            cy="42.035"
            r="44.899"
            gradientUnits="userSpaceOnUse"
        >
            <stop offset="0" stop-color="#fd5"></stop>
            <stop offset=".328" stop-color="#ff543f"></stop>
            <stop offset=".348" stop-color="#fc5245"></stop>
            <stop offset=".504" stop-color="#e64771"></stop>
            <stop offset=".643" stop-color="#d53e91"></stop>
            <stop offset=".761" stop-color="#cc39a4"></stop>
            <stop offset=".841" stop-color="#c837ab"></stop>
        </radialGradient>
        <path
            fill="url(#yOrnnhliCrdS2gy~4tD8ma_Xy10Jcu1L2Su_gr1)"
            d="M34.017,41.99l-20,0.019c-4.4,0.004-8.003-3.592-8.008-7.992l-0.019-20	c-0.004-4.4,3.592-8.003,7.992-8.008l20-0.019c4.4-0.004,8.003,3.592,8.008,7.992l0.019,20	C42.014,38.383,38.417,41.986,34.017,41.99z"
        ></path>
        <radialGradient
            id="yOrnnhliCrdS2gy~4tD8mb_Xy10Jcu1L2Su_gr2"
            cx="11.786"
            cy="5.54"
            r="29.813"
            gradientTransform="matrix(1 0 0 .6663 0 1.849)"
            gradientUnits="userSpaceOnUse"
        >
            <stop offset="0" stop-color="#4168c9"></stop>
            <stop
                offset=".999"
                stop-color="#4168c9"
                stop-opacity="0"
            ></stop>
        </radialGradient>
        <path
            fill="url(#yOrnnhliCrdS2gy~4tD8mb_Xy10Jcu1L2Su_gr2)"
            d="M34.017,41.99l-20,0.019c-4.4,0.004-8.003-3.592-8.008-7.992l-0.019-20	c-0.004-4.4,3.592-8.003,7.992-8.008l20-0.019c4.4-0.004,8.003,3.592,8.008,7.992l0.019,20	C42.014,38.383,38.417,41.986,34.017,41.99z"
        ></path>
        <path
            fill="#fff"
            d="M24,31c-3.859,0-7-3.14-7-7s3.141-7,7-7s7,3.14,7,7S27.859,31,24,31z M24,19c-2.757,0-5,2.243-5,5	s2.243,5,5,5s5-2.243,5-5S26.757,19,24,19z"
        ></path>
        <circle cx="31.5" cy="16.5" r="1.5" fill="#fff"></circle>
        <path
            fill="#fff"
            d="M30,37H18c-3.859,0-7-3.14-7-7V18c0-3.86,3.141-7,7-7h12c3.859,0,7,3.14,7,7v12	C37,33.86,33.859,37,30,37z M18,13c-2.757,0-5,2.243-5,5v12c0,2.757,2.243,5,5,5h12c2.757,0,5-2.243,5-5V18c0-2.757-2.243-5-5-5H18z"
        ></path>
    </symbol>

    <symbol id="twitter">
        <linearGradient
            id="HOaxCdew_So_FZGl4pPQ6a"
            x1="32"
            x2="32"
            y1="9"
            y2="55"
            gradientUnits="userSpaceOnUse"
        >
            <stop offset="0" stop-color="#1a6dff" />
            <stop offset="1" stop-color="#c822ff" />
        </linearGradient>
        <path
            fill="url(#HOaxCdew_So_FZGl4pPQ6a)"
            d="M49,55H15c-3.309,0-6-2.691-6-6V15c0-3.309,2.691-6,6-6h34c3.309,0,6,2.691,6,6v34	C55,52.309,52.309,55,49,55z M15,11c-2.206,0-4,1.794-4,4v34c0,2.206,1.794,4,4,4h34c2.206,0,4-1.794,4-4V15c0-2.206-1.794-4-4-4H15	z"
        />
        <linearGradient
            id="HOaxCdew_So_FZGl4pPQ6b"
            x1="32"
            x2="32"
            y1="13"
            y2="51"
            gradientUnits="userSpaceOnUse"
        >
            <stop offset="0" stop-color="#6dc7ff" />
            <stop offset="1" stop-color="#e6abff" />
        </linearGradient>
        <path
            fill="url(#HOaxCdew_So_FZGl4pPQ6b)"
            d="M26.978,22l14.108,20h-3.063L23.914,22H26.978z M51,15v34c0,1.1-0.9,2-2,2H15	c-1.1,0-2-0.9-2-2V15c0-1.1,0.9-2,2-2h34C50.1,13,51,13.9,51,15z M44.914,44L34.789,29.613L43,20h-2.5l-6.841,8.009L28.022,20	h-7.937l9.222,13.103L20,44h2.5l7.937-9.292L36.978,44H44.914z"
        />
    </symbol>

    <symbol id="linkedin">
        <path
            fill="#0288D1"
            d="M42,37c0,2.762-2.238,5-5,5H11c-2.761,0-5-2.238-5-5V11c0-2.762,2.239-5,5-5h26c2.762,0,5,2.238,5,5V37z"
        ></path>
        <path
            fill="#FFF"
            d="M12 19H17V36H12zM14.485 17h-.028C12.965 17 12 15.888 12 14.499 12 13.08 12.995 12 14.514 12c1.521 0 2.458 1.08 2.486 2.499C17 15.887 16.035 17 14.485 17zM36 36h-5v-9.099c0-2.198-1.225-3.698-3.192-3.698-1.501 0-2.313 1.012-2.707 1.99C24.957 25.543 25 26.511 25 27v9h-5V19h5v2.616C25.721 20.5 26.85 19 29.738 19c3.578 0 6.261 2.25 6.261 7.274L36 36 36 36z"
        ></path>
    </symbol>
</svg>