<svg xmlns="http://www.w3.org/2000/svg">
    <symbol id="chevron-down">
        <path
            stroke-linecap="round"
            stroke-linejoin="round"
            d="m19.5 8.25-7.5 7.5-7.5-7.5"
        />
    </symbol>

    <symbol id="search">
        <path
            stroke-linecap="round"
            stroke-linejoin="round"
            d="m21 21-5.197-5.197m0 0A7.5 7.5 0 1 0 5.196 5.196a7.5 7.5 0 0 0 10.607 10.607Z"
        />
    </symbol>

    <symbol id="bar">
        <path
            stroke-linecap="round"
            stroke-linejoin="round"
            d="M3.75 6.75h16.5M3.75 12h16.5m-16.5 5.25h16.5"
        />
    </symbol>

    <symbol id="arrow-left">
        <path
            stroke-linecap="round"
            stroke-linejoin="round"
            d="M6.75 15.75 3 12m0 0 3.75-3.75M3 12h18"
        />
    </symbol>

    <symbol id="arrow-right">
        <path
            stroke-linecap="round"
            stroke-linejoin="round"
            d="M17.25 8.25 21 12m0 0-3.75 3.75M21 12H3"
        />
    </symbol>

    <symbol id="star" viewBox="0 0 24 24">
        <path
            fill-rule="evenodd"
            d="M10.788 3.21c.448-1.077 1.976-1.077 2.424 0l2.082 5.006 5.404.434c1.164.093 1.636 1.545.749 2.305l-4.117 3.527 1.257 5.273c.271 1.136-.964 2.033-1.96 1.425L12 18.354 7.373 21.18c-.996.608-2.231-.29-1.96-1.425l1.257-5.273-4.117-3.527c-.887-.76-.415-2.212.749-2.305l5.404-.434 2.082-5.005Z"
            clip-rule="evenodd"
        />
    </symbol>

    <symbol id="calendar">
        <path
            stroke-linecap="round"
            stroke-linejoin="round"
            d="M6.75 3v2.25M17.25 3v2.25M3 18.75V7.5a2.25 2.25 0 0 1 2.25-2.25h13.5A2.25 2.25 0 0 1 21 7.5v11.25m-18 0A2.25 2.25 0 0 0 5.25 21h13.5A2.25 2.25 0 0 0 21 18.75m-18 0v-7.5A2.25 2.25 0 0 1 5.25 9h13.5A2.25 2.25 0 0 1 21 11.25v7.5m-9-6h.008v.008H12v-.008ZM12 15h.008v.008H12V15Zm0 2.25h.008v.008H12v-.008ZM9.75 15h.008v.008H9.75V15Zm0 2.25h.008v.008H9.75v-.008ZM7.5 15h.008v.008H7.5V15Zm0 2.25h.008v.008H7.5v-.008Zm6.75-4.5h.008v.008h-.008v-.008Zm0 2.25h.008v.008h-.008V15Zm0 2.25h.008v.008h-.008v-.008Zm2.25-4.5h.008v.008H16.5v-.008Zm0 2.25h.008v.008H16.5V15Z"
        />
    </symbol>
</svg>